<?xml version="1.0" encoding="utf-8"?>
<!-- Generator: Adobe Illustrator 27.1.1, SVG Export Plug-In . SVG Version: 6.00 Build 0)  -->
<svg version="1.1" id="layer" xmlns="http://www.w3.org/2000/svg" xmlns:xlink="http://www.w3.org/1999/xlink" x="0px" y="0px"
	 viewBox="0 0 175.2 83" style="enable-background:new 0 0 175.2 83;" xml:space="preserve">
<style type="text/css">
	.st0{fill:#E40712;}
</style>
<path class="st0" d="M57.2,57.1c0-0.9,0.2-2.4,0.5-5s2-10.1,8.6-14.3c-0.3,0-0.8-0.2-1.1-0.2c-0.9,0-3.6-0.2-7.4,1.2
	c1.5-2.3,7.1-6,9.2-7.1c0.2-0.2,0.5-0.3,0.6-0.3c-2.4-7.7-7.5-14-14.7-17.7c-4.5-2.4-9.2-3.6-15.5-3.8l0,0H24.8
	C14.7,9.9,10.1,9.7,6.5,9c-3-0.8-5.7-2.4-5.7-2.4L0,6.1L0.2,7c0,0.3,0.8,7.1,8.9,13.1c1.5,1.2,2.7,2.3,2.7,6.2v36.5
	c0,3.9-0.8,5-2.6,6c-2,1.2-6,3.5-6,3.6l-1.4,0.8h32.9c9.2,0,15-1.5,21.2-5.7c1.2-0.8,2.3-1.7,3.2-2.4c-0.6-4.7,0.2-8.9,0.8-11.3
	C59.8,53.6,58.1,55.1,57.2,57.1z M36.2,57.8h-7.1V25.4h7.1c9.3,0,14.6,5.9,14.6,16.2C50.8,52,45.5,57.8,36.2,57.8z M127.4,65.9
	c0.6-1.2,0.9-2.7,0.9-4.2s-0.5-3-1.1-4.2l1.8,0.3c1.2,0.2,3.5,1.7,3.5,3.9C132.5,64.4,129.8,65.6,127.4,65.9z M162.2,67.4
	c-6.3,4.2-12,5.7-21.2,5.7h-0.3c1.5-1.8,2.3-4.2,2.3-6.6c0-3.5-1.7-6.6-4.4-8.7h3.9c9.3,0,14.6-5.9,14.6-16.2
	c0-10.4-5.3-16.2-14.6-16.2h-7.1v4.1c-1.1-0.2-2-0.3-3-0.3c-1.7,0-3.6,0.3-4.1,0.6c2-1.7,4.2-2.4,5.7-2.7
	c-6.6-1.5-12.8,2.3-13.7,3.3c0.8-1.7,2.3-3.2,3.3-4.2c-2.1,0.8-4.1,1.8-5.7,2.9v-2.7c0-4.1-1.1-5.1-2.7-6.2
	c-8.1-5.9-8.9-12.8-8.9-13.1l-0.2-0.9l0.8,0.5c0,0,2.7,1.8,5.7,2.4c3.5,0.8,8.3,0.9,18.3,0.9h12.6l0,0c6.3,0.3,11,1.4,15.5,3.8
	c10.2,5.3,16.2,15.6,16.2,27.6c0,7.4-2.4,14.6-6.6,19.7C167.2,63.5,164.9,65.6,162.2,67.4z M130.4,55c-2.3,0-4.7,0.5-4.7,0.5
	c-0.5-0.5-3.5-2.7-4.8-3c2.4,2.6,1.7,5.3,1.1,6.2c-0.5,0.8-1.4,1.2-2.1,1.2c-0.6,0-1.2-0.2-1.8-0.6V44.6c0.6-0.8,1.2-1.7,2-2.4
	c1.7-2,4.4-3.2,7.1-3.2c1.7,0,3.3,0.5,4.4,1.4l0.9,0.6l0.8-0.8c0.5-0.5,1.5-0.9,2.6-1.4v17.3C134,55.3,132.3,55,130.4,55z
	 M127.4,34.6c-5.6-0.8-14.1,3-18.5,8.4c0.9-3.6,4.8-9.5,9.6-12.2c0,0-2.4,3-1.4,3.5c1.5,0.8,5.4-5.4,10.5-5.6c0,0-3.8,1.8-3,3.2
	c0.6,0.9,3.2-1.2,7.5-1.2c5.4,0,10.2,3.3,12.5,5.9c-3.8-1.1-10.8,0.8-12.9,2.6c-3.2-2.4-9.3-2.1-12.8,2c-4.4,5-7.1,10.8-7.8,12.6
	c-1.5-1.2-2.9-2.3-3.8-3c-0.8-0.6-1.5-0.9-2.3-1.2C109.2,43.7,117.6,35,127.4,34.6z M68.8,17.7c-0.6-7.1,2.7-11,4.2-12.6
	c3.3-3.5,7.8-5.4,14.6-5.1c10.5,0.6,15.6,7.8,15.6,15.5c0,4.1-2.1,9.5-5.1,12.9c-0.2-0.2-0.5-0.5-0.6-0.6c-2-1.8-4.8-4.1-6.6-6.8
	c3.6-5.3,2.1-13.5-4.4-13.5c-4.1,0-7.4,4.2-6,9.3c-0.6,2.3-0.9,5.3-0.5,7.5c-4.7-2.4-6.2-5.6-7.1-8.4c-1.2,2.4-2,5.7-1.1,8.9
	C72,25.1,69.3,22.7,68.8,17.7z M71.5,30.5C71,32.2,64.9,34,61.9,37c4.5-0.9,6.6-0.2,7.4,1.7c0.5,1.4-0.2,3.2-0.5,5.3
	c1.5-1.7,6.6-5.1,10.4-5.9c-0.9-0.3-3.2-0.8-4.1-0.8c2.7-3.2,8.7-4.2,12-3.5c-2.1-0.2-6.3,1.1-8,2.4c1.5,0.3,2.9,0.6,4.1,1.1
	c-2,0.8-4.5,3.2-5.4,5.7c2.6-1.8,7.8-1.4,8.7,2.4c0.6,2.6-1.2,4.8-2.1,5.3c0.8,0.2,2.6,0,3.3-0.5c-0.3,1.1-1.8,2.9-2.9,3.2
	c2.7,0,6.6-1.8,7.7-4.4c0,0-1.7,0.6-2.4-0.2c-0.8-0.8,0.3-4.1,0.3-4.1s-1.1,1.4-2,0.6c-0.9-0.9,0.3-3.9,0.8-4.5
	c-0.9-0.3-3.3-0.6-4.4-0.5c3-1.1,9.8-1.7,10.5-0.3c0.6,1.1-0.9,3.2-0.9,3.2c1.2-0.2,4.7,0,5.9,1.4c1.2,1.5,0.5,3.5,0.5,3.5
	c2.7-1.4,5.1-5.6,4.5-9.8c-0.3,0.9-1.5,2.3-2.7,2.6c0.2-1.4-0.9-2.1-1.8-2.4c0.5-2.6-0.6-5.9-4.4-9.5c-3.2-3.2-9.2-7.4-8.9-12.9
	c-0.9,1.2-1.7,4.7-0.8,6.6c2.6,3,8.1,6.3,9.5,11.4c-2.4-6-14.1-10.7-13.7-18.9c-1.5,1.5-2.4,7.4-1.2,10.4c2.3,1.4,4.2,3.6,4.5,5.7
	c-2.1-4.8-10.7-5.7-13.1-11.4c-0.6,2.1-0.3,4.7,0.9,6.3c0,0-2.1-0.8-6.6-0.6C68.6,26.1,71.8,28.8,71.5,30.5z M95.8,37.4
	c-2.6,0-3.3-2-3.9-4.1C94.9,34.6,95.8,37.4,95.8,37.4z M128.6,76.6c1.8,1.7,6.2,2.9,8.4,1.8c-1.4,2.4-7.7,5.7-13.5,4.2
	c-5.6-1.5-8.1-6.8-8.1-10.2c-2.7,2.7-2,6.9,0,8.7c-2.1-0.6-5.4-2.9-6-6.9c-0.5-3.5,1.5-7.5-2.1-10.7c-2.1-2-5.6-4.7-7.7-6.3
	c-4.5-3.5-2.9-6.2-3.8-8c-0.8-1.5-2.7-2.3-3.8-3.6c-1.2-1.4-1.1-3.3-0.5-4.4c-0.2,1.5,0.9,2.7,2.4,3.3c1.7,0.6,3,0.2,4.5,0.9
	c1.7,1.1,0.9,3.6,2.1,4.7c1.1,0.8,3.9-0.3,6.2,1.7c2.4,2,7.7,6.3,9.9,8.1c4.1,3.3,8.3-0.5,6.9-4.4c4.2,2.4,4.7,9.3,1.2,11.7
	c3.3,0.8,9.2-0.8,9.2-5.4c0-2.9-2.7-5-4.5-5.3c6.8-0.6,12.6,4.1,12.6,10.1C141.8,72.7,135.6,77.5,128.6,76.6z M106.2,64.3
	c0.2,0.2,0.3,0.3,0.5,0.5c-3.6,7.4-10.4,16.8-23.3,16.8c-4.7,0-8.9-1.7-11.9-3.9c-1.1-0.8-2-1.7-2.7-2.7l0,0l0,0
	c-0.5-0.6-0.9-1.1-1.4-1.7c-0.6-0.8-1.1-0.8-1.4-0.3c-0.6,0.9,0.5,3.8,0.5,3.8c-10.2-9.6-5-23.7-4.8-24.3c0.6-1.8,0-2.1-0.6-1.8
	c-0.9,0.3-2,1.8-2,1.8c0.8-8.6,8.7-13.8,8.7-13.8l0.2,0.2c0.9,1.4-0.5,3-0.6,8.4c1.5-2.1,7.4-6.2,10.7-7.4c-1.1,1.4-2,3.3-2,6.2
	c0,0,2.4-2.7,5.4-2.7c0.8,0,1.5,0.2,2.1,0.5C72.2,55,77,68.8,86.6,68.8c5.4,0,10.8-6,13.1-10.1C101.4,60.2,104.2,62.6,106.2,64.3z"
	/>
</svg>
